<svg width="85" height="469" viewBox="0 0 85 469" fill="none" xmlns="http://www.w3.org/2000/svg">
<ellipse cx="42.0606" cy="429.719" rx="41.9945" ry="38.8691" fill="#661CE7"/>
<path d="M31.5915 441.243C29.9595 441.243 28.5195 440.896 27.2715 440.203C26.0235 439.499 25.0475 438.523 24.3435 437.275C23.6501 436.027 23.3035 434.587 23.3035 432.955V425.531C23.3035 423.899 23.6501 422.459 24.3435 421.211C25.0475 419.963 26.0235 418.992 27.2715 418.299C28.5195 417.595 29.9595 417.243 31.5915 417.243C33.2235 417.243 34.6581 417.595 35.8955 418.299C37.1435 418.992 38.1195 419.963 38.8235 421.211C39.5275 422.459 39.8795 423.899 39.8795 425.531V432.955C39.8795 434.587 39.5275 436.027 38.8235 437.275C38.1195 438.523 37.1435 439.499 35.8955 440.203C34.6581 440.896 33.2235 441.243 31.5915 441.243ZM31.5915 437.579C32.4021 437.579 33.1381 437.387 33.7995 437.003C34.4608 436.608 34.9835 436.085 35.3675 435.435C35.7515 434.773 35.9435 434.037 35.9435 433.227V425.243C35.9435 424.421 35.7515 423.685 35.3675 423.035C34.9835 422.373 34.4608 421.851 33.7995 421.467C33.1381 421.072 32.4021 420.875 31.5915 420.875C30.7808 420.875 30.0448 421.072 29.3835 421.467C28.7221 421.851 28.1995 422.373 27.8155 423.035C27.4315 423.685 27.2395 424.421 27.2395 425.243V433.227C27.2395 434.037 27.4315 434.773 27.8155 435.435C28.1995 436.085 28.7221 436.608 29.3835 437.003C30.0448 437.387 30.7808 437.579 31.5915 437.579ZM50.958 441.195C49.806 441.195 48.718 440.971 47.694 440.523C46.67 440.075 45.7793 439.44 45.022 438.619C44.2753 437.797 43.7366 436.827 43.406 435.707L47.134 434.699C47.4006 435.616 47.886 436.325 48.59 436.827C49.3046 437.317 50.0886 437.557 50.942 437.547C51.6993 437.547 52.3766 437.371 52.974 437.019C53.5713 436.667 54.0406 436.192 54.382 435.595C54.7233 434.987 54.894 434.309 54.894 433.563C54.894 432.421 54.526 431.467 53.79 430.699C53.054 429.931 52.1046 429.547 50.942 429.547C50.59 429.547 50.2433 429.595 49.902 429.691C49.5713 429.787 49.2513 429.92 48.942 430.091L47.182 427.051L54.926 420.427L55.262 421.355H44.302V417.723H58.43V421.371L52.206 427.355L52.174 426.219C53.5713 426.315 54.7606 426.704 55.742 427.387C56.734 428.069 57.4913 428.949 58.014 430.027C58.5473 431.104 58.814 432.283 58.814 433.563C58.814 435.013 58.4566 436.315 57.742 437.467C57.038 438.619 56.0886 439.531 54.894 440.203C53.71 440.864 52.398 441.195 50.958 441.195Z" fill="white"/>
<mask id="mask0_482_1539" style="mask-type:alpha" maskUnits="userSpaceOnUse" x="0" y="390" width="85" height="79">
<ellipse cx="42.0606" cy="429.719" rx="41.9945" ry="38.8691" fill="#661CE7"/>
</mask>
<g mask="url(#mask0_482_1539)">
<ellipse cx="42.0607" cy="468.588" rx="24.4968" ry="22.6736" fill="white" fill-opacity="0.24"/>
</g>
<line x1="43.0608" y1="286.04" x2="43.0608" y2="360.698" stroke="#FF6433" stroke-width="2" stroke-linecap="round" stroke-dasharray="4 4"/>
<ellipse cx="42.0606" cy="234.294" rx="41.9945" ry="38.8691" fill="#661CE7"/>
<path d="M31.5915 245.818C29.9595 245.818 28.5195 245.471 27.2715 244.778C26.0235 244.074 25.0475 243.098 24.3435 241.85C23.6501 240.602 23.3035 239.162 23.3035 237.53V230.106C23.3035 228.474 23.6501 227.034 24.3435 225.786C25.0475 224.538 26.0235 223.567 27.2715 222.874C28.5195 222.17 29.9595 221.818 31.5915 221.818C33.2235 221.818 34.6581 222.17 35.8955 222.874C37.1435 223.567 38.1195 224.538 38.8235 225.786C39.5275 227.034 39.8795 228.474 39.8795 230.106V237.53C39.8795 239.162 39.5275 240.602 38.8235 241.85C38.1195 243.098 37.1435 244.074 35.8955 244.778C34.6581 245.471 33.2235 245.818 31.5915 245.818ZM31.5915 242.154C32.4021 242.154 33.1381 241.962 33.7995 241.578C34.4608 241.183 34.9835 240.66 35.3675 240.01C35.7515 239.348 35.9435 238.612 35.9435 237.802V229.818C35.9435 228.996 35.7515 228.26 35.3675 227.61C34.9835 226.948 34.4608 226.426 33.7995 226.042C33.1381 225.647 32.4021 225.45 31.5915 225.45C30.7808 225.45 30.0448 225.647 29.3835 226.042C28.7221 226.426 28.1995 226.948 27.8155 227.61C27.4315 228.26 27.2395 228.996 27.2395 229.818V237.802C27.2395 238.612 27.4315 239.348 27.8155 240.01C28.1995 240.66 28.7221 241.183 29.3835 241.578C30.0448 241.962 30.7808 242.154 31.5915 242.154ZM43.726 245.306V241.946L53.582 233.162C54.35 232.479 54.8833 231.834 55.182 231.226C55.4806 230.618 55.63 230.031 55.63 229.466C55.63 228.698 55.4646 228.015 55.134 227.418C54.8033 226.81 54.3446 226.33 53.758 225.978C53.182 225.626 52.5153 225.45 51.758 225.45C50.958 225.45 50.2486 225.636 49.63 226.01C49.022 226.372 48.5473 226.858 48.206 227.466C47.8646 228.074 47.7046 228.73 47.726 229.434H43.758C43.758 227.898 44.0993 226.559 44.782 225.418C45.4753 224.276 46.4246 223.391 47.63 222.762C48.846 222.132 50.2486 221.818 51.838 221.818C53.31 221.818 54.6326 222.148 55.806 222.81C56.9793 223.46 57.902 224.367 58.574 225.53C59.246 226.682 59.582 228.01 59.582 229.514C59.582 230.612 59.4326 231.535 59.134 232.282C58.8353 233.028 58.3873 233.716 57.79 234.346C57.2033 234.975 56.4726 235.674 55.598 236.442L48.606 242.634L48.254 241.674H59.582V245.306H43.726Z" fill="white"/>
<mask id="mask1_482_1539" style="mask-type:alpha" maskUnits="userSpaceOnUse" x="0" y="195" width="85" height="79">
<ellipse cx="42.0606" cy="234.294" rx="41.9945" ry="38.8691" fill="#661CE7"/>
</mask>
<g mask="url(#mask1_482_1539)">
<ellipse cx="42.0607" cy="273.163" rx="24.4968" ry="22.6736" fill="white" fill-opacity="0.24"/>
</g>
<line x1="43.0608" y1="96.0132" x2="43.0608" y2="170.672" stroke="#FF6433" stroke-width="2" stroke-linecap="round" stroke-dasharray="4 4"/>
<ellipse cx="42.0606" cy="38.8691" rx="41.9945" ry="38.8691" fill="#661CE7"/>
<path d="M31.5915 50.3926C29.9595 50.3926 28.5195 50.0459 27.2715 49.3526C26.0235 48.6486 25.0475 47.6726 24.3435 46.4246C23.6501 45.1766 23.3035 43.7366 23.3035 42.1046V34.6806C23.3035 33.0486 23.6501 31.6086 24.3435 30.3606C25.0475 29.1126 26.0235 28.1419 27.2715 27.4486C28.5195 26.7446 29.9595 26.3926 31.5915 26.3926C33.2235 26.3926 34.6581 26.7446 35.8955 27.4486C37.1435 28.1419 38.1195 29.1126 38.8235 30.3606C39.5275 31.6086 39.8795 33.0486 39.8795 34.6806V42.1046C39.8795 43.7366 39.5275 45.1766 38.8235 46.4246C38.1195 47.6726 37.1435 48.6486 35.8955 49.3526C34.6581 50.0459 33.2235 50.3926 31.5915 50.3926ZM31.5915 46.7286C32.4021 46.7286 33.1381 46.5366 33.7995 46.1526C34.4608 45.7579 34.9835 45.2353 35.3675 44.5846C35.7515 43.9233 35.9435 43.1873 35.9435 42.3766V34.3926C35.9435 33.5713 35.7515 32.8353 35.3675 32.1846C34.9835 31.5233 34.4608 31.0006 33.7995 30.6166C33.1381 30.2219 32.4021 30.0246 31.5915 30.0246C30.7808 30.0246 30.0448 30.2219 29.3835 30.6166C28.7221 31.0006 28.1995 31.5233 27.8155 32.1846C27.4315 32.8353 27.2395 33.5713 27.2395 34.3926V42.3766C27.2395 43.1873 27.4315 43.9233 27.8155 44.5846C28.1995 45.2353 28.7221 45.7579 29.3835 46.1526C30.0448 46.5366 30.7808 46.7286 31.5915 46.7286ZM48.366 49.9126V31.0806L44.046 33.7206V29.4646L48.366 26.8726H52.302V49.9126H48.366Z" fill="white"/>
<mask id="mask2_482_1539" style="mask-type:alpha" maskUnits="userSpaceOnUse" x="0" y="0" width="85" height="78">
<ellipse cx="42.0606" cy="38.8691" rx="41.9945" ry="38.8691" fill="#661CE7"/>
</mask>
<g mask="url(#mask2_482_1539)">
<ellipse cx="42.0607" cy="77.7381" rx="24.4968" ry="22.6736" fill="white" fill-opacity="0.24"/>
</g>
</svg>
